<svg width="145" height="33" viewBox="0 0 145 33" fill="none" xmlns="http://www.w3.org/2000/svg">
<path d="M17.604 8.31826C16.9026 7.55844 16.1574 6.98857 15.3684 6.60867C14.6086 6.19953 13.7173 5.99497 12.6944 5.99497C11.4378 5.99497 10.3711 6.2872 9.49442 6.87168C8.64693 7.42693 7.96017 8.21597 7.43415 9.2388C6.90812 10.2324 6.52821 11.4014 6.29442 12.7457C6.06063 14.0899 5.94373 15.5365 5.94373 17.0854C5.94373 18.6342 6.04602 20.0808 6.25058 21.4251C6.48437 22.7694 6.86428 23.953 7.39031 24.9758C7.94556 25.9986 8.67615 26.8023 9.58209 27.3867C10.5173 27.9712 11.6862 28.2635 13.0889 28.2635C13.7611 28.2635 14.404 28.205 15.0177 28.0881C15.6314 27.9712 16.1867 27.8543 16.6835 27.7374C17.2095 27.5913 17.6332 27.4598 17.9547 27.3429C18.3054 27.226 18.5246 27.153 18.6122 27.1237L19.8396 30.8059L19.2698 31.0251C18.8899 31.1712 18.3492 31.3466 17.6478 31.5511C16.9757 31.7265 16.1574 31.8872 15.1931 32.0333C14.2579 32.2087 13.2204 32.2963 12.0807 32.2963C8.16474 32.2963 5.21314 31.0543 3.22593 28.5703C1.26794 26.0571 0.28894 22.3895 0.28894 17.5676C0.28894 15.2589 0.551954 13.1548 1.07798 11.2552C1.60401 9.32647 2.39305 7.67533 3.4451 6.30182C4.52638 4.9283 5.87068 3.86163 7.47798 3.10182C9.11451 2.342 11.0287 1.96209 13.2204 1.96209C14.9739 1.96209 16.4058 2.28355 17.5163 2.92647C18.6561 3.5694 19.5766 4.29999 20.278 5.11826L17.604 8.31826Z" fill="#5CBE9C"/>
<path d="M30.7335 9.67716C34.0942 9.67716 36.5344 10.6708 38.054 12.658C39.5736 14.6452 40.3335 17.3776 40.3335 20.8552C40.3335 22.4918 40.1289 24.026 39.7198 25.458C39.3106 26.8607 38.6823 28.0881 37.8348 29.1402C37.0166 30.163 35.9791 30.9813 34.7225 31.595C33.4659 32.1794 32.0047 32.4717 30.3389 32.4717C28.6732 32.4717 27.2266 32.2233 25.9992 31.7265C24.801 31.2004 23.8074 30.4552 23.0184 29.4909C22.2294 28.5265 21.6449 27.3575 21.265 25.984C20.9143 24.6105 20.7389 23.0616 20.7389 21.3374C20.7389 19.6717 20.9435 18.1374 21.3526 16.7347C21.7618 15.3027 22.3755 14.0753 23.1937 13.0525C24.0412 12.0004 25.0933 11.1822 26.3499 10.5977C27.6065 9.98401 29.0677 9.67716 30.7335 9.67716ZM30.2951 13.3594C29.4476 13.3594 28.7462 13.5493 28.191 13.9292C27.665 14.3091 27.2412 14.8498 26.9198 15.5511C26.6275 16.2233 26.423 17.0269 26.3061 17.9621C26.1892 18.868 26.1307 19.847 26.1307 20.8991C26.1307 21.9804 26.1892 23.0032 26.3061 23.9676C26.4522 24.932 26.7006 25.7794 27.0513 26.51C27.402 27.2114 27.8695 27.7667 28.454 28.1758C29.0677 28.5849 29.8421 28.7895 30.7773 28.7895C31.6248 28.7895 32.3115 28.5995 32.8376 28.2196C33.3928 27.8397 33.8166 27.3137 34.1088 26.6415C34.4303 25.9402 34.6494 25.1365 34.7663 24.2306C34.8832 23.3247 34.9417 22.3457 34.9417 21.2936C34.9417 20.2123 34.8686 19.1895 34.7225 18.2251C34.6056 17.2607 34.3718 16.4132 34.0211 15.6826C33.6704 14.952 33.1883 14.3822 32.5746 13.973C31.9901 13.5639 31.2303 13.3594 30.2951 13.3594Z" fill="#5CBE9C"/>
<path d="M58.2886 32.0333V17.8744C58.2886 16.647 58.0694 15.668 57.6311 14.9374C57.1927 14.1776 56.4475 13.7977 55.3954 13.7977C54.7233 13.7977 54.0658 13.9731 53.4228 14.3237C52.8091 14.6452 52.2539 15.1274 51.7571 15.7703C51.2603 16.4132 50.8512 17.2023 50.5297 18.1374C50.2375 19.0434 50.0913 20.0662 50.0913 21.2059V32.0333H45.0941V20.9867C45.0941 19.2333 44.9772 17.7721 44.7434 16.6032C44.5096 15.405 44.2612 14.4406 43.9982 13.71C43.6767 12.8625 43.326 12.1758 42.9461 11.6498L46.8913 10.0717C47.1836 10.3931 47.4758 10.7877 47.768 11.2552C48.0018 11.6644 48.2356 12.1758 48.4694 12.7895C48.7032 13.374 48.8932 14.0461 49.0393 14.8059C49.7991 13.0525 50.895 11.7959 52.327 11.0361C53.7589 10.247 55.2639 9.8525 56.842 9.8525C59.0922 9.8525 60.7142 10.5393 61.7078 11.9128C62.7306 13.2571 63.242 15.0836 63.242 17.3922V32.0333H58.2886Z" fill="#5CBE9C"/>
<path d="M86.3797 21.4689C86.3797 23.2224 86.482 24.6982 86.6865 25.8963C86.9203 27.0653 87.1687 28.0151 87.4317 28.7457C87.7532 29.6224 88.1039 30.3091 88.4838 30.8059L84.5824 32.384C84.2025 32.0041 83.8518 31.5511 83.5304 31.0251C83.2674 30.5575 83.019 30.0023 82.7852 29.3594C82.5514 28.6872 82.4053 27.8982 82.3468 26.9922C81.85 28.7457 81.0464 30.0753 79.9359 30.9813C78.8546 31.858 77.3788 32.2963 75.5085 32.2963C74.1349 32.2963 72.9368 32.0479 71.9139 31.5511C70.9203 31.0251 70.0875 30.2945 69.4153 29.3594C68.7432 28.395 68.2464 27.2406 67.9249 25.8963C67.6034 24.552 67.4427 23.0616 67.4427 21.4251C67.4427 19.7594 67.6911 18.2251 68.1879 16.8224C68.7139 15.3904 69.4299 14.163 70.3359 13.1402C71.271 12.1173 72.3815 11.3137 73.6674 10.7292C74.9532 10.1447 76.3706 9.8525 77.9194 9.8525C78.7961 9.8525 79.7021 9.92556 80.6372 10.0717C81.6016 10.1886 82.4929 10.3201 83.3112 10.4662C84.1295 10.6123 84.8162 10.7584 85.3715 10.9046C85.9559 11.0215 86.292 11.0945 86.3797 11.1237V21.4689ZM76.3413 28.7895C77.0719 28.7895 77.7441 28.5411 78.3578 28.0443C78.9715 27.5475 79.4975 26.9046 79.9359 26.1155C80.4034 25.2973 80.7541 24.3767 80.9879 23.3539C81.2509 22.3018 81.3824 21.2352 81.3824 20.1539V13.8415C81.0902 13.7539 80.6518 13.6516 80.0674 13.5347C79.4829 13.4178 78.9569 13.3594 78.4893 13.3594C77.3788 13.3594 76.4582 13.5493 75.7276 13.9292C75.0263 14.3091 74.4564 14.8352 74.018 15.5073C73.5797 16.1794 73.2728 16.9831 73.0975 17.9183C72.9222 18.8534 72.8345 19.8762 72.8345 20.9867C72.8345 22.0096 72.8637 22.9886 72.9222 23.9237C72.9806 24.8589 73.1267 25.6918 73.3605 26.4224C73.6235 27.153 73.9888 27.7374 74.4564 28.1758C74.924 28.5849 75.5523 28.7895 76.3413 28.7895Z" fill="#5CBE9C"/>
<path d="M109.969 10.2032L110.057 10.5539C110.086 10.8169 110.13 11.1676 110.188 11.6059C110.247 12.0151 110.291 12.4973 110.32 13.0525C110.378 13.5785 110.407 14.1192 110.407 14.6744C110.407 17.9183 110.159 20.6653 109.662 22.9155C109.195 25.1365 108.464 26.9484 107.47 28.3511C106.506 29.7246 105.264 30.7183 103.744 31.332C102.254 31.9457 100.486 32.2525 98.4403 32.2525C96.1316 32.2525 94.4805 31.595 93.4869 30.2799C92.5225 28.9356 92.0403 27.0945 92.0403 24.7566V10.2032H97.0376V24.6251C97.0376 25.8525 97.2567 26.8461 97.6951 27.6059C98.1335 28.3657 98.8787 28.7457 99.9307 28.7457C100.983 28.7457 101.859 28.3511 102.561 27.5621C103.262 26.7731 103.817 25.7502 104.227 24.4936C104.636 23.2078 104.928 21.7612 105.103 20.1539C105.279 18.5173 105.366 16.8662 105.366 15.2004C105.366 14.5867 105.337 13.9877 105.279 13.4032C105.249 12.7895 105.191 12.2488 105.103 11.7813C105.045 11.3137 105.001 10.9338 104.972 10.6415L104.884 10.2032H109.969Z" fill="#5CBE9C"/>
<path d="M119.85 32.2087C118.301 32.2087 117.118 31.7557 116.3 30.8498C115.481 29.9146 115.072 28.7164 115.072 27.2552V10.2032H120.069V26.8169C120.069 27.489 120.172 27.942 120.376 28.1758C120.581 28.4096 120.888 28.5265 121.297 28.5265C121.414 28.5265 121.531 28.5265 121.647 28.5265C121.794 28.5265 121.925 28.5119 122.042 28.4826C122.159 28.4826 122.29 28.468 122.437 28.4388L122.963 31.595C122.758 31.7119 122.495 31.8141 122.174 31.9018C121.911 31.9895 121.574 32.0625 121.165 32.121C120.785 32.1794 120.347 32.2087 119.85 32.2087ZM117.658 0.47168C118.594 0.47168 119.31 0.749305 119.806 1.30456C120.303 1.85981 120.552 2.57579 120.552 3.4525C120.552 4.32921 120.289 5.05981 119.763 5.64428C119.266 6.22876 118.521 6.521 117.527 6.521C116.592 6.521 115.861 6.24337 115.335 5.68812C114.838 5.10364 114.59 4.40227 114.59 3.58401C114.59 2.67807 114.838 1.93287 115.335 1.34839C115.861 0.763917 116.636 0.47168 117.658 0.47168Z" fill="#5CBE9C"/>
<path d="M135.143 9.67716C138.503 9.67716 140.944 10.6708 142.463 12.658C143.983 14.6452 144.743 17.3776 144.743 20.8552C144.743 22.4918 144.538 24.026 144.129 25.458C143.72 26.8607 143.092 28.0881 142.244 29.1402C141.426 30.163 140.388 30.9813 139.132 31.595C137.875 32.1794 136.414 32.4717 134.748 32.4717C133.082 32.4717 131.636 32.2233 130.408 31.7265C129.21 31.2004 128.217 30.4552 127.428 29.4909C126.639 28.5265 126.054 27.3575 125.674 25.984C125.324 24.6105 125.148 23.0616 125.148 21.3374C125.148 19.6717 125.353 18.1374 125.762 16.7347C126.171 15.3027 126.785 14.0753 127.603 13.0525C128.45 12.0004 129.503 11.1822 130.759 10.5977C132.016 9.98401 133.477 9.67716 135.143 9.67716ZM134.704 13.3594C133.857 13.3594 133.155 13.5493 132.6 13.9292C132.074 14.3091 131.65 14.8498 131.329 15.5511C131.037 16.2233 130.832 17.0269 130.715 17.9621C130.598 18.868 130.54 19.847 130.54 20.8991C130.54 21.9804 130.598 23.0032 130.715 23.9676C130.861 24.932 131.11 25.7794 131.461 26.51C131.811 27.2114 132.279 27.7667 132.863 28.1758C133.477 28.5849 134.251 28.7895 135.187 28.7895C136.034 28.7895 136.721 28.5995 137.247 28.2196C137.802 27.8397 138.226 27.3137 138.518 26.6415C138.84 25.9402 139.059 25.1365 139.176 24.2306C139.292 23.3247 139.351 22.3457 139.351 21.2936C139.351 20.2123 139.278 19.1895 139.132 18.2251C139.015 17.2607 138.781 16.4132 138.43 15.6826C138.08 14.952 137.597 14.3822 136.984 13.973C136.399 13.5639 135.64 13.3594 134.704 13.3594Z" fill="#5CBE9C"/>
</svg>
